<svg width="40" height="40" viewBox="0 0 40 40" fill="none" xmlns="http://www.w3.org/2000/svg">
<path d="M17.375 29.875C18.5256 29.875 19.4583 28.9423 19.4583 27.7917C19.4583 26.6411 18.5256 25.7084 17.375 25.7084C16.2244 25.7084 15.2916 26.6411 15.2916 27.7917C15.2916 28.9423 16.2244 29.875 17.375 29.875Z" stroke="white" stroke-width="2" stroke-linecap="round" stroke-linejoin="round"/>
<path d="M25.7083 29.875C26.8589 29.875 27.7917 28.9423 27.7917 27.7917C27.7917 26.6411 26.8589 25.7084 25.7083 25.7084C24.5577 25.7084 23.625 26.6411 23.625 27.7917C23.625 28.9423 24.5577 29.875 25.7083 29.875Z" stroke="white" stroke-width="2" stroke-linecap="round" stroke-linejoin="round"/>
<path d="M11.125 11.125H13.2083L15.2917 23.625C15.5164 24.264 15.9426 24.8128 16.5063 25.1885C17.0699 25.5643 17.7404 25.7467 18.4167 25.7083H25.7083C26.3846 25.7467 27.0551 25.5643 27.6187 25.1885C28.1824 24.8128 28.6086 24.264 28.8333 23.625L29.875 16.3333H14.0417" stroke="white" stroke-width="2" stroke-linecap="round" stroke-linejoin="round"/>
<rect x="1.5" y="1.5" width="37" height="37" rx="18.5" stroke="white" stroke-width="3"/>
</svg>
