<svg width="40" height="40" fill="none" xmlns="http://www.w3.org/2000/svg"><path d="M17.4 29.9a2 2 0 1 0 0-4.2 2 2 0 0 0 0 4.2ZM25.7 29.9a2 2 0 1 0 0-4.2 2 2 0 0 0 0 4.2Z" stroke="#fff" stroke-width="2" stroke-linecap="round" stroke-linejoin="round"/><path d="M11.1 11.1h2.1l2 12.5a3.1 3.1 0 0 0 3.2 2.1h7.3a3.1 3.1 0 0 0 3.1-2l1-7.4H14" stroke="#fff" stroke-width="2" stroke-linecap="round" stroke-linejoin="round"/><rect x="1.5" y="1.5" width="37" height="37" rx="18.5" stroke="#fff" stroke-width="3"/></svg>