<svg width="19" height="18" viewBox="0 0 19 18" fill="none" xmlns="http://www.w3.org/2000/svg">
<path d="M15.4375 10.179L9.49997 15.75L3.56247 10.179C3.17084 9.81797 2.86236 9.38402 2.65645 8.90449C2.45054 8.42495 2.35167 7.91022 2.36606 7.39271C2.38045 6.8752 2.50779 6.36611 2.74006 5.89751C2.97233 5.42891 3.3045 5.01095 3.71565 4.66995C4.1268 4.32894 4.60803 4.07228 5.12903 3.91612C5.65003 3.75997 6.19952 3.7077 6.74289 3.76261C7.28626 3.81752 7.81174 3.97843 8.28625 4.23519C8.76075 4.49195 9.174 4.83901 9.49997 5.25451C9.82735 4.84203 10.2411 4.498 10.7153 4.24396C11.1894 3.98993 11.7139 3.83135 12.2557 3.77815C12.7976 3.72495 13.3452 3.77828 13.8643 3.9348C14.3833 4.09132 14.8627 4.34767 15.2724 4.68778C15.6822 5.0279 16.0134 5.44447 16.2453 5.91143C16.4773 6.37839 16.605 6.88567 16.6205 7.40154C16.636 7.91741 16.5389 8.43076 16.3353 8.90945C16.1318 9.38814 15.8261 9.82188 15.4375 10.1835" stroke="#ED1C40" stroke-width="2" stroke-linecap="round" stroke-linejoin="round"/>
</svg>
