<svg width="47" height="46" viewBox="0 0 47 46" fill="none" xmlns="http://www.w3.org/2000/svg">
<rect x="0.5" width="46" height="46" rx="23" fill="white"/>
<path d="M35.5 36.5V33.5C35.5 31.9087 34.8678 30.3826 33.7426 29.2574C32.6174 28.1321 31.0913 27.5 29.5 27.5H17.5C15.9087 27.5 14.3826 28.1321 13.2574 29.2574C12.1321 30.3826 11.5 31.9087 11.5 33.5V36.5" stroke="#333333" stroke-width="3" stroke-linecap="round" stroke-linejoin="round"/>
<path d="M23.5 21.5C26.8137 21.5 29.5 18.8137 29.5 15.5C29.5 12.1863 26.8137 9.5 23.5 9.5C20.1863 9.5 17.5 12.1863 17.5 15.5C17.5 18.8137 20.1863 21.5 23.5 21.5Z" stroke="#333333" stroke-width="3" stroke-linecap="round" stroke-linejoin="round"/>
</svg>
